<svg width="500" height="120" viewBox="0 0 500 120" fill="none" xmlns="http://www.w3.org/2000/svg">
<g clip-path="url(#clip0_1915_396)">
<path d="M148.606 28.2593C148.256 28.2593 147.973 28.543 147.973 28.8929V89.6613C147.973 90.0113 148.256 90.2949 148.606 90.2949H161.253C161.602 90.2949 161.887 90.0113 161.887 89.6613V46.4265L182.387 84.7211C184.225 88.1526 187.8 90.2949 191.693 90.2949H201.576C201.926 90.2949 202.209 90.0113 202.209 89.6613V28.8929C202.209 28.543 201.926 28.2593 201.576 28.2593H189.017C188.667 28.2593 188.383 28.543 188.383 28.8929V72.1278L167.883 33.8331C166.047 30.4016 162.468 28.2593 158.577 28.2593H148.606ZM210.054 28.2593C209.782 28.2593 209.561 28.4801 209.561 28.7528V63.1767C209.561 78.153 221.701 90.2949 236.679 90.2949C251.656 90.2949 263.797 78.153 263.797 63.1767V28.7528C263.797 28.4801 263.577 28.2593 263.304 28.2593H258.951C253.943 28.2593 249.883 32.3192 249.883 37.3275V64.488C249.883 71.7809 243.972 77.692 236.679 77.692C229.386 77.692 223.475 71.7809 223.475 64.488V37.3275C223.475 32.3192 219.414 28.2593 214.407 28.2593H210.054ZM286.143 28.2593C285.87 28.2593 285.627 28.4343 285.542 28.6952L265.391 90.2949H273.171C277.235 90.2949 280.825 87.6391 282.013 83.7515L295.255 40.3112L307.756 83.6286L307.76 83.6382C308.911 87.5835 312.525 90.2949 316.634 90.2949H324.944L306.205 28.7086C306.123 28.4425 305.876 28.2593 305.598 28.2593L286.143 28.2593ZM331.889 28.2593C331.539 28.2593 331.257 28.543 331.257 28.8929V89.6632C331.257 90.0119 331.539 90.2949 331.889 90.2949H345.246C345.596 90.2949 345.878 90.0119 345.878 89.6632V67.6081H356.868L365.781 83.907C367.936 87.8458 372.067 90.2949 376.556 90.2949H384.607L370.694 66.1892C379.556 63.4419 383.366 57.061 383.366 48.287C383.366 37.21 376.542 28.2593 359.616 28.2593H331.889ZM389.913 28.2593C389.641 28.2593 389.418 28.4801 389.418 28.7528V41.4652C389.418 54.0442 397.982 64.6212 409.597 67.6868V89.3964C409.597 89.8918 409.999 90.2949 410.496 90.2949H422.581C423.076 90.2949 423.477 89.8918 423.477 89.3964V67.6868C435.092 64.6209 443.655 54.0439 443.655 41.4652V28.7528C443.655 28.4801 443.436 28.2593 443.163 28.2593H438.81C433.802 28.2593 429.742 32.3192 429.742 37.3275V42.7746C429.742 50.0675 423.831 55.9805 416.538 55.9805C409.245 55.9805 403.334 50.0675 403.334 42.7746V37.3275C403.334 32.3192 399.273 28.2593 394.266 28.2593H389.913ZM466.464 28.2593C457.208 28.2593 449.702 35.7627 449.701 45.0191C449.698 54.2794 457.205 61.7866 466.464 61.7866H478.67C482.7 61.7866 485.966 65.0541 485.966 69.0845C485.966 73.1137 482.7 76.3806 478.67 76.3806H463.611C455.926 76.3806 449.697 82.6095 449.697 90.293H479.494C490.82 90.293 500.001 81.1133 500.001 69.7873C500.001 58.4613 490.82 49.2815 479.494 49.2815H469.509C466.318 49.2815 463.732 46.6945 463.732 43.5042C463.732 40.3139 466.318 37.725 469.509 37.725H485.284C490.513 37.725 494.752 33.4878 494.752 28.2593H466.464ZM345.878 38.5391H358.907C365.643 38.5391 368.832 42.3494 368.832 48.287C368.832 54.2246 365.643 58.0368 358.907 58.0368H345.878V38.5391Z" fill="white"/>
<path d="M54.9983 -0.446289C52.0754 -0.446289 49.6898 1.92615 49.6898 4.86219V11.7697H30.9595L48.8641 42.7803C52.7045 40.5389 57.1609 39.2688 61.9188 39.2688C66.6768 39.2688 71.1333 40.5389 74.9737 42.7803L92.8782 11.7697H74.1349V4.86219C74.1349 1.92615 71.7624 -0.446289 68.8264 -0.446289H54.9983ZM48.75 65.3877C48.75 72.6596 54.6443 78.5539 61.9162 78.5539C69.1868 78.5539 75.0826 72.6596 75.0826 65.3877C75.0826 58.1158 69.1868 52.2214 61.9162 52.2214C54.6443 52.2214 48.75 58.1158 48.75 65.3877ZM88.0417 65.3916C88.0417 75.0517 82.7857 83.4928 74.9737 88.0017L92.8782 119L102.237 102.787L108.227 106.233C110.77 107.702 114.007 106.836 115.475 104.294L122.396 92.3258C123.864 89.7843 122.986 86.5324 120.443 85.0657L114.466 81.6185L123.825 65.3916H88.0417ZM0 65.3916L9.37182 81.6185L3.38174 85.0657C0.838994 86.5324 -0.0261738 89.7843 1.44181 92.3258L8.34941 104.294C9.8174 106.836 13.068 107.702 15.6108 106.233L21.5878 102.787L30.9595 119L48.8641 88.0017C41.0521 83.4928 35.7961 75.0517 35.7961 65.3916H0Z" fill="url(#paint0_radial_1915_396)"/>
</g>
<defs>
<radialGradient id="paint0_radial_1915_396" cx="0" cy="0" r="1" gradientUnits="userSpaceOnUse" gradientTransform="translate(61.9123 59.2771) rotate(90) scale(59.7233 61.9123)">
<stop stop-color="#FFA350"/>
<stop offset="1" stop-color="#FF6350"/>
</radialGradient>
<clipPath id="clip0_1915_396">
<rect width="500" height="120" fill="white"/>
</clipPath>
</defs>
</svg>
