<svg width="200" height="200" viewBox="0 0 200 200" fill="none" xmlns="http://www.w3.org/2000/svg">
<path d="M88.8325 3.53564C84.1114 3.53564 80.2583 7.36755 80.2583 12.1098V23.2668H50.0054L78.9245 73.3546C85.1276 69.7344 92.3256 67.683 100.011 67.683C107.696 67.683 114.894 69.7344 121.097 73.3546L150.016 23.2668H119.742V12.1098C119.742 7.36755 115.91 3.53564 111.168 3.53564H88.8325ZM78.7403 109.87C78.7403 121.615 88.2609 131.136 100.006 131.136C111.75 131.136 121.272 121.615 121.272 109.87C121.272 98.1244 111.75 88.6039 100.006 88.6039C88.2609 88.6039 78.7403 98.1244 78.7403 109.87ZM142.204 109.877C142.204 125.479 133.714 139.113 121.097 146.396L150.016 196.465L165.132 170.277L174.807 175.842C178.914 178.216 184.143 176.816 186.514 172.711L197.692 153.38C200.063 149.275 198.645 144.023 194.538 141.654L184.884 136.086L200 109.877H142.204ZM0 109.877L15.1372 136.086L5.46208 141.654C1.35498 144.023 -0.0422169 149.275 2.32888 153.38L13.4858 172.711C15.8569 176.816 21.1073 178.216 25.2144 175.842L34.8682 170.277L50.0054 196.465L78.9245 146.396C66.3068 139.113 57.8173 125.479 57.8173 109.877H0Z" fill="url(#paint0_radial_1915_361)"/>
<defs>
<radialGradient id="paint0_radial_1915_361" cx="0" cy="0" r="1" gradientUnits="userSpaceOnUse" gradientTransform="translate(100 100) rotate(90) scale(96.4646 100)">
<stop stop-color="#FFA350"/>
<stop offset="1" stop-color="#FF6350"/>
</radialGradient>
</defs>
</svg>
